<mxfile host="Electron" modified="2024-06-16T19:20:04.098Z" agent="Mozilla/5.0 (Macintosh; Intel Mac OS X 10_15_7) AppleWebKit/537.36 (KHTML, like Gecko) draw.io/24.2.5 Chrome/120.0.6099.109 Electron/28.1.0 Safari/537.36" etag="qpbqvNSMoiYeatWDCzFy" version="24.2.5" type="device">
  <diagram name="Page-1" id="HoeSv6-qRDDc5KqrmHrN">
    <mxGraphModel dx="1026" dy="656" grid="1" gridSize="10" guides="1" tooltips="1" connect="1" arrows="1" fold="1" page="1" pageScale="1" pageWidth="827" pageHeight="1169" math="0" shadow="0">
      <root>
        <mxCell id="0" />
        <mxCell id="1" parent="0" />
        <mxCell id="CHF5BzEEw99W-lvVxTSk-3" value="" style="edgeStyle=orthogonalEdgeStyle;rounded=0;orthogonalLoop=1;jettySize=auto;html=1;" edge="1" parent="1" source="CHF5BzEEw99W-lvVxTSk-1" target="CHF5BzEEw99W-lvVxTSk-2">
          <mxGeometry relative="1" as="geometry" />
        </mxCell>
        <mxCell id="CHF5BzEEw99W-lvVxTSk-1" value="Описание крутого видео&amp;nbsp;&lt;div&gt;#nba&lt;/div&gt;&lt;div&gt;#jordan&lt;br&gt;&lt;/div&gt;&lt;div&gt;#баскетбол&lt;/div&gt;" style="text;html=1;align=center;verticalAlign=middle;whiteSpace=wrap;rounded=0;" vertex="1" parent="1">
          <mxGeometry x="60" y="90" width="150" height="80" as="geometry" />
        </mxCell>
        <mxCell id="CHF5BzEEw99W-lvVxTSk-5" value="" style="edgeStyle=orthogonalEdgeStyle;rounded=0;orthogonalLoop=1;jettySize=auto;html=1;entryX=0;entryY=0.5;entryDx=0;entryDy=0;" edge="1" parent="1" source="CHF5BzEEw99W-lvVxTSk-2" target="CHF5BzEEw99W-lvVxTSk-6">
          <mxGeometry relative="1" as="geometry">
            <mxPoint x="505" y="130" as="targetPoint" />
          </mxGeometry>
        </mxCell>
        <mxCell id="CHF5BzEEw99W-lvVxTSk-2" value="Поиск тегов" style="whiteSpace=wrap;html=1;" vertex="1" parent="1">
          <mxGeometry x="305" y="100" width="120" height="60" as="geometry" />
        </mxCell>
        <mxCell id="CHF5BzEEw99W-lvVxTSk-6" value="&lt;span style=&quot;background-color: initial;&quot;&gt;nba&lt;/span&gt;&lt;div&gt;jordan&lt;br&gt;&lt;/div&gt;&lt;div&gt;баскетбол&lt;/div&gt;" style="text;html=1;align=center;verticalAlign=middle;whiteSpace=wrap;rounded=0;" vertex="1" parent="1">
          <mxGeometry x="530" y="90" width="70" height="80" as="geometry" />
        </mxCell>
        <mxCell id="CHF5BzEEw99W-lvVxTSk-9" style="edgeStyle=orthogonalEdgeStyle;rounded=0;orthogonalLoop=1;jettySize=auto;html=1;entryX=0.5;entryY=0;entryDx=0;entryDy=0;exitX=0.5;exitY=1;exitDx=0;exitDy=0;" edge="1" parent="1" target="CHF5BzEEw99W-lvVxTSk-11" source="CHF5BzEEw99W-lvVxTSk-6">
          <mxGeometry relative="1" as="geometry">
            <mxPoint x="555" y="170" as="sourcePoint" />
          </mxGeometry>
        </mxCell>
        <mxCell id="CHF5BzEEw99W-lvVxTSk-10" style="edgeStyle=orthogonalEdgeStyle;rounded=0;orthogonalLoop=1;jettySize=auto;html=1;entryX=1;entryY=0.5;entryDx=0;entryDy=0;" edge="1" parent="1" source="CHF5BzEEw99W-lvVxTSk-11" target="CHF5BzEEw99W-lvVxTSk-13">
          <mxGeometry relative="1" as="geometry" />
        </mxCell>
        <mxCell id="CHF5BzEEw99W-lvVxTSk-11" value="LaBSE" style="rounded=0;whiteSpace=wrap;html=1;fillColor=#f5f5f5;fontColor=#333333;strokeColor=#666666;" vertex="1" parent="1">
          <mxGeometry x="525" y="265" width="80" height="60" as="geometry" />
        </mxCell>
        <mxCell id="CHF5BzEEw99W-lvVxTSk-12" value="" style="group" vertex="1" connectable="0" parent="1">
          <mxGeometry x="320" y="222" width="83" height="110" as="geometry" />
        </mxCell>
        <mxCell id="CHF5BzEEw99W-lvVxTSk-13" value="&lt;b&gt;1 0 5 4 32 6&amp;nbsp;&lt;/b&gt;&lt;div&gt;&lt;b&gt;3 1 7 8 48 3&amp;nbsp;&lt;/b&gt;&lt;/div&gt;&lt;div&gt;&lt;b&gt;5 6 3 0 32 1&amp;nbsp;&lt;/b&gt;&lt;/div&gt;&lt;div&gt;&lt;b&gt;6 4 7 1 43 7&amp;nbsp;&lt;br&gt;&lt;/b&gt;&lt;/div&gt;&lt;div&gt;&lt;b&gt;...&lt;/b&gt;&lt;/div&gt;" style="text;html=1;align=center;verticalAlign=middle;whiteSpace=wrap;rounded=0;" vertex="1" parent="CHF5BzEEw99W-lvVxTSk-12">
          <mxGeometry y="35" width="83" height="75" as="geometry" />
        </mxCell>
        <mxCell id="CHF5BzEEw99W-lvVxTSk-14" value="&lt;b&gt;Текстовые эмбеддинги&lt;/b&gt;" style="text;html=1;align=center;verticalAlign=middle;whiteSpace=wrap;rounded=0;" vertex="1" parent="CHF5BzEEw99W-lvVxTSk-12">
          <mxGeometry width="83" height="30" as="geometry" />
        </mxCell>
        <mxCell id="CHF5BzEEw99W-lvVxTSk-15" value="&lt;font style=&quot;font-size: 26px;&quot;&gt;1&lt;/font&gt;" style="ellipse;whiteSpace=wrap;html=1;aspect=fixed;" vertex="1" parent="1">
          <mxGeometry x="240" y="100" width="25" height="25" as="geometry" />
        </mxCell>
        <mxCell id="CHF5BzEEw99W-lvVxTSk-16" value="&lt;font style=&quot;font-size: 26px;&quot;&gt;2&lt;/font&gt;" style="ellipse;whiteSpace=wrap;html=1;aspect=fixed;" vertex="1" parent="1">
          <mxGeometry x="470" y="100" width="25" height="25" as="geometry" />
        </mxCell>
        <mxCell id="CHF5BzEEw99W-lvVxTSk-17" value="&lt;font style=&quot;font-size: 26px;&quot;&gt;3&lt;/font&gt;" style="ellipse;whiteSpace=wrap;html=1;aspect=fixed;" vertex="1" parent="1">
          <mxGeometry x="520" y="210" width="25" height="25" as="geometry" />
        </mxCell>
        <mxCell id="CHF5BzEEw99W-lvVxTSk-18" value="&lt;font style=&quot;font-size: 26px;&quot;&gt;4&lt;/font&gt;" style="ellipse;whiteSpace=wrap;html=1;aspect=fixed;" vertex="1" parent="1">
          <mxGeometry x="450" y="260" width="25" height="25" as="geometry" />
        </mxCell>
      </root>
    </mxGraphModel>
  </diagram>
</mxfile>
